<svg xmlns="http://www.w3.org/2000/svg" viewBox="0 0 800 376" width="800" height="376"><title>Proyecto nuevo</title><defs><linearGradient id="g1" x1="44.2" y1="212.7" x2="179.4" y2="163.5" gradientUnits="userSpaceOnUse"><stop offset=".167" stop-color="#000000" stop-opacity="1"></stop><stop offset=".853" stop-color="#f7f7f7" stop-opacity="0"></stop></linearGradient></defs><style>		.s0 { fill: #158a7f } 		.s1 { fill: url(#g1) } 	</style><path id="Layer" class="s0" d="m111.7 111.9h48.9l-48.7 152.4h-48.9z"></path><path id="Layer" class="s1" d="m111.7 111.9h48.9l-48.7 152.4h-48.9z"></path><path id="Layer" class="s0" d="m111.9 264.3h-48.9l-49.1-152.4h49.3z"></path><path id="Layer" class="s0" d="m272.2 230.8v33.5h-95.8v-152.4h94.7v33.5h-59.9v25.2h54.5v33.1h-54.5v27h61z"></path><path id="Layer" fill-rule="evenodd" class="s0" d="m346 214.1h-16.5v50.1h-34.9v-152.4h61c29 0 52.3 23.3 52.3 52.3 0 18.7-11.3 35.7-28.1 44.2l32.4 55.9h-37.4zm-16.6-30.5h26.2c9.5 0 17.4-8.5 17.4-19.6 0-11-7.9-19.6-17.4-19.6h-26.2z"></path><path id="Layer" class="s0" d="m421.6 229.6l30-17.4c5.5 12.6 14.8 21.1 32 21.1 16.6 0 20.7-6.5 20.7-12.4 0-9.4-8.7-13.1-31.6-19.4-22.6-6.3-44.8-17.2-44.8-46.4 0-29.4 24.8-46.3 51.1-46.3 25.1 0 44.7 11.9 55.8 34.4l-29.4 17.2c-5.2-10.9-12.4-17.7-26.4-17.7-10.8 0-16.3 5.5-16.3 11.6 0 6.9 3.7 11.7 27.5 18.9 23 7 48.9 15 48.9 47.3 0 29.4-23.5 46.8-56.6 46.8-32 0-52.4-15.3-60.9-37.7z"></path><path id="Layer" class="s0" d="m654.1 230.7v33.5h-95.8v-152.4h94.7v33.5h-59.9v25.3h54.5v33.1h-54.5v27h61z"></path><path id="Layer" class="s0" d="m668.9 229.6l30.1-17.4c5.4 12.6 14.8 21.1 32 21.1 16.5 0 20.7-6.5 20.7-12.4 0-9.4-8.8-13.1-31.6-19.4-22.7-6.3-44.9-17.2-44.9-46.4 0-29.4 24.8-46.3 51.2-46.3 25 0 44.6 11.9 55.7 34.4l-29.4 17.2c-5.2-10.9-12.4-17.7-26.3-17.7-10.9 0-16.4 5.5-16.4 11.6 0 6.9 3.8 11.7 27.5 18.9 23.1 7 49 15 49 47.3 0 29.4-23.5 46.8-56.6 46.8-32 0-52.5-15.3-61-37.7z"></path></svg>